<mxfile host="app.diagrams.net" modified="2023-11-21T08:15:18.733Z" agent="Mozilla/5.0 (Windows NT 10.0; Win64; x64) AppleWebKit/537.36 (KHTML, like Gecko) Chrome/119.0.0.0 Safari/537.36" etag="VK6rRIxHnXfP2sy08fO1" version="22.1.3" type="github">
  <diagram name="Page-1" id="xELZvoblDwX-p50Wy-eh">
    <mxGraphModel dx="794" dy="424" grid="1" gridSize="10" guides="1" tooltips="1" connect="1" arrows="1" fold="1" page="1" pageScale="1" pageWidth="850" pageHeight="1100" math="0" shadow="0">
      <root>
        <mxCell id="0" />
        <mxCell id="1" parent="0" />
        <mxCell id="4WVFi2HPuONULAJe3UKG-3" value="" style="edgeStyle=orthogonalEdgeStyle;rounded=0;orthogonalLoop=1;jettySize=auto;html=1;" edge="1" parent="1" source="4WVFi2HPuONULAJe3UKG-1" target="4WVFi2HPuONULAJe3UKG-2">
          <mxGeometry relative="1" as="geometry" />
        </mxCell>
        <mxCell id="4WVFi2HPuONULAJe3UKG-1" value="database" style="rounded=0;whiteSpace=wrap;html=1;" vertex="1" parent="1">
          <mxGeometry x="350" y="190" width="120" height="60" as="geometry" />
        </mxCell>
        <mxCell id="4WVFi2HPuONULAJe3UKG-5" value="" style="edgeStyle=orthogonalEdgeStyle;rounded=0;orthogonalLoop=1;jettySize=auto;html=1;" edge="1" parent="1" source="4WVFi2HPuONULAJe3UKG-2" target="4WVFi2HPuONULAJe3UKG-4">
          <mxGeometry relative="1" as="geometry" />
        </mxCell>
        <mxCell id="4WVFi2HPuONULAJe3UKG-2" value="collections" style="rounded=0;whiteSpace=wrap;html=1;" vertex="1" parent="1">
          <mxGeometry x="350" y="330" width="120" height="60" as="geometry" />
        </mxCell>
        <mxCell id="4WVFi2HPuONULAJe3UKG-4" value="documents" style="whiteSpace=wrap;html=1;rounded=0;" vertex="1" parent="1">
          <mxGeometry x="350" y="470" width="120" height="60" as="geometry" />
        </mxCell>
      </root>
    </mxGraphModel>
  </diagram>
</mxfile>
